<svg width="91" height="81" viewBox="0 0 91 81" fill="none" xmlns="http://www.w3.org/2000/svg">
<path id="Vector" d="M88.1638 14.4233C86.123 9.70973 83.0725 5.88669 78.6901 3.25837C76.2626 1.80302 73.6632 0.89073 70.849 0.564906C64.2754 -0.217073 58.5396 1.82476 53.5342 6.12564C50.0325 9.12323 47.5406 12.9028 45.6931 17.1385C45.6072 17.3123 45.5212 17.5078 45.4353 17.7467C45.3279 17.5512 45.2634 17.3992 45.199 17.2471C44.0604 14.6405 42.6856 12.1642 40.967 9.90518C38.0454 6.06045 34.4578 3.08461 29.925 1.3686C28.0131 0.651782 26.0367 0.195614 23.9959 0.0652843C23.867 0.0652843 23.7381 0.0218437 23.6092 0.00012207H21.7617C21.1602 0.0870086 20.5802 0.130465 19.9786 0.217352C16.0044 0.782114 12.5242 2.41122 9.47374 5.01781C6.01507 7.97196 3.6735 11.7298 2.12676 16.0307C1.05264 18.9631 0.451131 21.9825 0.193342 25.0887C0.107412 25.9358 0.0644472 26.8046 0 27.6518V30.1063C0.0644472 30.8232 0.128895 31.5617 0.193342 32.2785C0.773367 37.2093 2.70679 41.4885 5.84322 45.2463C8.12035 47.9833 10.8057 50.2423 13.6843 52.3276C17.1 54.7821 20.6876 56.9108 24.2536 59.1264C30.0539 62.7539 35.2526 67.0983 39.7854 72.2897C41.3751 74.1361 42.9004 76.0476 44.1249 78.1546C44.6619 79.0886 45.1131 80.0661 45.5857 81.0001C45.6931 80.7612 45.779 80.4788 45.9079 80.1747C46.5954 78.6107 47.5406 77.1988 48.5503 75.8304C52.0089 71.2254 56.0476 67.2069 60.43 63.5359C63.4805 60.951 66.7888 58.7355 70.1616 56.585C73.3195 54.5866 76.4774 52.5665 79.442 50.2423C82.2562 48.0484 84.8126 45.5939 86.8534 42.618C88.9157 39.5553 90.2261 36.2101 90.7417 32.5392C91.1714 29.4112 91.021 26.3051 90.6128 23.1989C90.2261 20.1796 89.4742 17.2471 88.2712 14.4667L88.1638 14.4233Z" fill="#D01525"/>
</svg>
