<svg width="320" height="63" viewBox="0 0 320 63" fill="none" xmlns="http://www.w3.org/2000/svg">
<path d="M60.8402 12.8669C60.1135 12.0199 57.1662 12.3829 56.3588 12.8266C55.5513 13.2703 54.9457 14.4803 54.9457 14.4803C54.9457 14.4803 52.2003 23.4343 52.2407 25.693C52.3214 29.3633 56.3588 30.775 56.3588 30.775C56.3588 30.775 56.601 31.5817 58.9427 30.533C61.244 29.4843 62.8589 24.6443 62.8589 24.3216C62.8589 23.1116 62.9396 22.0226 63.0204 20.974C63.1011 13.7946 60.8402 12.9073 60.8402 12.9073M60.0731 20.248C59.9924 20.732 59.2253 24.4426 58.7812 25.1687C58.3371 25.8947 58.7004 27.1853 57.4892 27.1853H57.0855C57.0855 27.1853 56.5203 23.3133 56.5203 22.1033C56.601 22.1436 57.9737 18.191 57.9737 18.191L58.5389 16.255L59.1042 16.013C59.5483 16.4566 59.9924 20.2076 59.9924 20.2076L60.0731 20.248Z" fill="white"/>
<path d="M62.7372 0C62.2931 0 43.9232 2.74268 43.9232 2.74268L24.0594 1.21C24.0594 1.21 18.2457 -0.322668 16.5096 3.02501C14.7332 5.08202 14.935 6.73569 14.8139 7.66336C14.6928 8.5507 15.6618 9.59937 15.7425 9.6397C15.9847 9.55903 16.6307 9.2767 16.8326 9.19603C16.7115 8.63137 16.5903 8.0667 16.5903 7.50203C16.5903 5.92902 17.0345 4.39635 18.1245 3.71068C18.9724 3.18634 20.7892 3.99301 20.9911 4.23502L18.5686 10.6884C18.5686 10.6884 16.9133 18.2711 14.935 24.0387C12.9971 29.8468 8.27341 37.0261 8.27341 37.0261C7.58706 37.6311 6.29511 37.4698 6.29511 37.4698C3.02486 35.3321 1.12731 28.5561 1.12731 28.3948C0.925439 28.2334 0.642826 28.0318 0.642826 28.0318C0.440958 27.8301 0.0372214 28.5561 0.0372214 28.8384C0.0372214 29.7258 -0.649124 35.4531 3.8727 38.8008C4.23606 38.9218 5.08391 39.3251 6.81996 40.0915C11.584 40.0108 13.7642 33.8398 13.7642 33.8398C13.8449 33.7591 21.1929 12.1 21.1929 12.1C21.1929 12.1 21.1929 12.1 21.1929 12.0597L23.6153 4.71902L41.2585 7.70369C41.2585 7.70369 38.3113 21.8607 38.1498 27.8301C37.9479 30.9761 40.3299 34.0415 43.0753 31.8231C44.3269 30.7744 49.1717 23.9581 49.1717 23.9581V22.7481C49.1717 22.7481 47.6375 21.9414 47.3953 21.9817C47.3145 22.0624 44.0847 26.4588 43.8828 26.7008C43.6809 26.9428 42.1467 28.8384 41.5008 28.8384C40.8548 28.8384 40.1684 28.0318 40.5318 25.9748C41.097 23.0304 44.1654 7.54236 44.1654 7.54236L49.4543 6.73569C51.6749 6.49369 59.7899 5.68702 60.0322 5.64669C60.4763 5.20302 63.3024 4.55768 63.4236 4.03335L63.7869 1.93601L62.7776 0H62.7372Z" fill="white"/>
<path d="M147.279 15.0444C147.279 15.0444 147.279 14.7621 147.037 14.6814C145.947 14.7621 144.534 16.3754 144.251 16.6174L131.937 30.3308L131.453 30.2098C131.453 30.2098 132.341 25.2488 132.502 24.7244C132.623 24.2808 134.763 16.8998 134.965 16.2948C135.127 15.6898 135.651 14.3991 134.763 13.1891C134.359 13.1891 133.673 12.8261 133.471 12.8664C132.543 12.8664 132.058 15.2058 132.058 15.2058L130.484 21.7398L129.071 31.2585C129.071 31.2585 128.788 32.2668 129.676 32.4685C130.484 32.6298 131.331 32.3475 131.331 32.3475L134.44 30.1695L138.962 25.9748C138.962 25.9748 142.919 21.6994 145.018 19.2391C144.614 21.7398 143.686 28.8385 143.605 29.5645C143.605 29.5645 143.484 30.3308 143.444 30.6938C143.686 30.8551 144.937 31.6618 145.341 29.9678C145.422 29.4031 145.462 28.7175 145.462 27.9511L145.583 25.4101L146.996 17.5451C147.158 16.7384 147.319 15.9318 147.319 15.1251" fill="white"/>
<path d="M121.32 12.8256C120.149 12.2206 118.736 12.5433 117.323 12.866C117.323 12.866 112.599 13.6323 112.075 17.4236C111.55 21.215 111.227 23.9577 111.227 23.9577C110.863 26.1357 110.742 28.4347 110.742 30.7337C110.742 33.92 111.267 40.6557 111.267 40.7364C111.59 41.0187 111.752 41.5027 111.792 41.9867L112.68 51.1827C112.922 51.3441 114.174 52.0297 114.376 52.0297C114.376 51.5861 114.376 50.4971 114.376 50.0534C114.376 48.6014 114.012 41.1397 114.012 41.1397C114.012 41.1397 114.376 29.4027 114.537 24.0383C115.668 23.7156 118.736 22.667 119.624 22.425C120.674 22.1023 123.783 20.3276 123.621 16.617C123.581 14.197 121.36 12.8256 121.36 12.8256H121.32ZM118.575 20.4486C117.162 20.8923 115.143 21.6586 114.578 21.9006C114.578 21.578 114.578 21.3763 114.578 21.3763L114.78 19.3596C114.901 19.037 117.162 14.8826 118.615 14.439C120.028 14.0356 123.541 17.9076 118.615 20.4486H118.575Z" fill="white"/>
<path d="M104.2 24.5632C98.5074 26.0959 98.8304 25.4102 98.8304 25.4102L98.3459 22.4255C98.3863 22.1835 99.5168 16.7385 99.5168 16.7385C99.5571 16.2948 99.7994 14.0362 99.7994 13.9152C99.7994 13.9152 98.0633 13.4312 97.8614 13.2295C97.7807 13.3102 96.6502 15.6898 96.6502 15.6898C96.6099 15.6898 95.5198 15.8915 95.4794 15.8108C95.3583 15.7302 94.1875 14.0362 91.8054 13.7538C91.6036 13.6732 91.3209 13.6328 90.9172 13.6328C90.1097 13.6328 88.5755 14.2378 88.5755 14.2378C88.5755 14.2378 87.2836 14.9235 85.9916 16.7385C84.6997 18.5535 84.0537 21.8609 84.0537 21.8609C83.8115 23.9179 87.5662 27.6689 87.5662 27.6689C89.1004 28.8385 92.3303 28.1125 93.2992 27.3462L95.4794 25.7732L96.408 25.2489C96.408 25.2489 96.6502 26.9025 97.4577 27.6689C98.3056 28.4352 100.566 27.6689 100.768 27.6689L104.604 26.4589L104.16 24.5229L104.2 24.5632ZM93.7433 24.0389C92.1284 27.5882 88.5352 25.1279 88.5352 25.1279C88.5352 25.1279 86.678 23.1515 88.3333 19.2795C88.3333 19.2795 88.9793 17.8678 89.1811 17.1015C89.383 16.3352 90.5538 15.4478 90.5538 15.4478C90.5538 15.4478 90.675 15.4075 90.7961 15.3268C91.8862 14.8832 92.8551 15.4478 92.9763 15.7705C92.9763 15.7705 95.4794 20.9735 93.6222 23.1515C93.703 23.4339 93.7837 23.7162 93.7837 23.9985L93.7433 24.0389Z" fill="white"/>
<path d="M76.3841 11.3336C74.204 11.3739 74.0425 10.9303 72.1449 12.1806C70.2473 13.3906 68.0672 16.2543 68.0672 16.2543C68.0672 16.2543 65.9274 19.4406 67.4616 23.0706C68.9958 26.7006 72.3468 26.0553 72.3468 26.0553L75.5363 24.2L77.8376 22.869C77.9183 25.047 76.5052 30.25 76.5052 30.25C76.5052 30.25 74.9307 32.791 73.1542 32.065C71.3778 31.2987 71.2567 31.2987 70.8933 31.5407C70.9741 31.702 71.5797 34.122 75.1325 33.4767L76.7879 33.0733C79.0488 32.3877 79.8159 28.314 79.8159 28.314C79.8159 28.314 79.9774 27.346 80.3003 24.6436C80.6233 21.9413 80.3003 14.9636 80.3003 14.9636C80.3003 14.9636 78.5239 11.4143 76.3437 11.4949L76.3841 11.3336ZM72.5486 16.5366C72.5486 15.8106 73.235 14.4796 73.8002 14.0359C74.3654 13.6326 76.7071 13.7939 76.7071 14.6006V16.8996L75.7785 18.7146C75.7785 18.7146 74.5269 20.7313 73.8406 21.2556C71.7815 23.7563 71.6604 21.6993 71.6604 21.6993C71.6604 21.6993 72.5083 16.8593 72.5083 16.5366H72.5486Z" fill="white"/>
<path d="M229.883 15.9315C227.461 14.1165 217.004 17.0205 215.995 17.1415C215.187 17.2222 213.128 17.8272 213.128 17.8272L213.653 13.5115L214.582 9.23617C214.582 9.23617 215.51 2.17781 215.551 1.69381C215.309 1.69381 214.299 1.37114 214.219 1.53248L210.02 17.2625L192.578 16.9802L193.628 10.0832L194.113 8.7925L194.637 3.42815L194.032 3.18615C194.032 3.18615 193.628 2.94415 193.426 2.94415C193.426 2.94415 192.861 4.88016 192.821 4.88016C192.821 4.92049 191.448 10.8495 191.448 11.0512C191.448 11.1318 190.196 17.0609 190.196 17.0609L183.252 17.1415C183.252 17.1415 177.681 17.7465 176.267 17.9885C176.267 17.9885 173.643 18.3515 173.522 18.1499L174.854 9.55884L175.339 6.33216L174.128 6.04983L173.159 8.83284C172.957 9.23617 172.069 12.7855 172.069 12.9065C172.069 13.0275 172.23 14.2375 172.23 14.2375L171.907 17.7869C171.584 18.4322 170.817 18.4725 170.171 18.5532L167.143 19.0775C167.143 19.0775 167.426 19.6825 167.506 19.8842C167.587 19.8842 168.758 20.4085 169.364 20.4892L171.14 20.1665L170.898 22.6672C170.736 23.5142 170.211 27.4266 170.211 27.6282C170.211 27.7089 170.211 29.9272 170.211 29.9272L169.727 32.2666C169.727 32.2666 169.848 33.1943 169.888 33.3556C170.01 33.3556 170.171 33.4363 170.292 33.5573C170.413 33.5573 171.705 33.1943 171.867 33.1136C171.867 32.9523 172.149 31.8229 172.149 31.8229C172.553 30.6936 172.593 28.8786 172.593 26.9022L173.32 20.0455L182.162 18.9565C182.162 18.9565 189.389 20.0455 189.55 20.2069L188.46 25.3292C187.935 25.8939 187.855 26.5796 187.855 27.3862C187.855 27.5476 187.249 33.5573 187.249 33.5573C187.249 33.5573 188.864 34.4043 188.945 34.4849C189.308 34.4849 189.671 34.4849 189.873 34.3236L190.479 30.4516L190.883 26.6199C190.883 26.5392 192.053 20.3279 192.053 20.3279C192.215 19.4405 209.293 20.5699 209.293 20.5699C209.293 20.5699 207.194 31.6213 207.315 31.7019C207.436 31.8633 209.495 32.9119 209.495 32.9119C209.495 32.9119 211.675 24.3612 211.836 23.8369C211.715 23.8369 212.604 20.4085 212.604 20.4085C212.886 20.4489 216.479 19.1985 216.479 19.1985C216.479 19.1985 219.346 18.9969 219.669 18.9969L223.868 18.5532C223.868 18.5532 227.461 18.4322 229.036 18.7952C230.61 19.1582 229.964 16.0525 229.964 15.8912" fill="white"/>
<path d="M257.58 11.0919L255.843 10.5676C255.157 10.5676 254.552 10.8096 254.43 11.0113L252.089 13.754L248.536 17.9083C248.536 17.9083 245.467 21.619 243.247 23.797C241.026 25.975 235.899 29.242 235.899 29.242L235.98 27.064L242.439 12.7456C242.439 12.7456 243.045 9.15594 241.753 9.80127C239.896 9.59961 239.008 12.3019 239.008 12.3019L234.809 23.9583L233.678 26.7413C233.678 26.7413 233.234 29.847 233.921 30.5327L234.567 31.2183C234.567 31.2183 235.334 32.5494 240.461 28.153C243.045 25.9347 243.489 25.5717 243.489 25.5717C243.57 25.612 254.027 16.3353 254.027 16.4563L252.169 23.555C252.169 23.555 251.362 25.975 250.837 27.2253C250.312 28.4757 250.595 30.8957 250.595 31.2587C250.595 31.2587 250.958 32.993 251.443 33.3157C252.048 33.7594 253.461 32.146 253.623 32.0653C253.623 31.8637 256.893 16.779 256.893 16.779C257.418 15.4076 257.741 14.5203 257.378 13.27L257.62 11.0919H257.58Z" fill="white"/>
<path d="M274.415 31.3796C273.85 30.1696 274.415 31.3796 274.415 31.3796C274.335 31.0972 273.043 28.5965 272.195 27.5479C271.347 26.4992 270.741 25.6925 268.238 23.8775L269.772 22.7885C270.176 22.5465 270.782 21.9012 272.195 20.4492C273.608 19.0375 275.263 16.1335 275.263 16.1335C275.263 16.1335 277.484 12.1002 277.322 9.76082C277.322 8.18782 275.223 2.0168 272.679 1.7748C271.589 1.5328 269.53 1.97646 268.884 2.3798C268.238 2.82347 267.673 3.02513 266.3 4.71914C264.928 6.41314 263.474 8.67182 263.07 9.72049C262.626 10.7692 262.586 11.8985 262.586 11.8985L262.707 12.9068C262.707 12.9068 263.192 13.6732 263.636 13.5925C264.08 13.5118 264.12 12.1405 264.12 12.1405L264.201 10.4868L266.704 7.05848C268.359 5.56614 270.015 5.36447 270.015 5.36447C271.791 5.20314 272.639 6.45348 272.639 6.45348C272.639 6.45348 274.012 8.14748 273.971 9.39782C273.931 10.6078 273.366 13.6732 272.074 15.6898C270.782 17.7468 269.167 19.4812 269.167 19.4812C269.167 19.4812 263.959 23.6759 263.999 23.7565C263.999 23.7565 263.474 24.4825 264.403 24.9665C265.331 25.4505 266.179 25.8942 266.179 25.8942C270.822 28.1932 272.114 31.5409 272.114 31.5409C272.114 31.5409 272.276 31.7829 273.083 35.0499C274.052 39.4866 272.962 44.3266 272.962 44.3266C272.962 44.3266 270.499 56.5476 266.018 56.7493L265.21 56.8703H262.747C260.931 57.0316 260.769 57.8786 261.092 58.8466C261.375 59.855 262.384 60.2583 263.878 60.944C265.372 61.6297 269.126 60.581 271.751 58.0803C274.617 55.4586 276.717 46.1416 276.717 45.9803C276.717 45.9803 277.968 39.6076 274.415 31.2586V31.3796Z" fill="white"/>
<path d="M319.634 21.4973C319.634 21.4973 319.271 19.158 315.516 18.8756C314.345 18.795 312.165 18.7143 312.165 18.7143L312.851 11.3333V7.9856C312.851 7.9856 312.973 6.73526 311.963 6.61426C310.227 6.61426 309.016 6.89659 308.612 7.42093C308.491 7.54193 308.451 7.70326 308.451 7.90493L307.038 17.222C307.038 17.222 306.23 20.2873 305.746 23.393C305.221 26.4987 307.078 30.4917 307.078 30.4917C307.038 30.532 307.482 31.2983 308.37 32.1857C309.258 33.073 313.942 31.863 313.942 31.863C313.942 31.863 316.324 31.2177 317.898 30.6933C320.159 29.8463 319.998 25.813 319.998 25.813C319.998 25.813 319.755 21.4973 319.675 21.457M310.429 22.3846L311.56 20.5293C311.56 20.5293 314.426 20.5293 315.032 21.1746C315.637 21.8603 316.324 25.45 316.324 25.813C316.324 26.539 315.88 27.5877 315.758 27.7893C315.678 27.9507 312.892 29.5237 312.892 29.5237H312.569C309.743 28.3943 310.469 22.3443 310.469 22.3443L310.429 22.3846Z" fill="white"/>
<path d="M301.91 7.70453L300.376 7.01887L299.205 6.5752C299.205 6.5752 297.59 8.59187 297.631 8.7532C297.631 8.7532 297.025 12.9479 297.025 13.0689L295.814 17.2232L290.323 18.3122C290.323 18.3122 286.609 20.0869 286.528 20.0062C286.528 19.7642 287.578 14.0772 287.578 14.0772L288.264 10.6085L288.749 8.91454C288.749 8.91454 288.143 8.22887 287.901 8.18854C287.901 8.18854 286.811 7.38187 285.963 7.94653C285.115 8.47087 284.59 9.76154 284.59 9.76154C284.59 9.76154 283.217 13.8352 283.056 15.8922C282.894 17.9896 282.127 27.7099 282.127 27.7099L281.603 29.9686C281.603 29.9686 281.724 30.2106 281.926 31.2189C282.612 33.1953 286.77 31.2189 286.77 31.2189C286.77 31.2189 286.77 26.2983 286.77 26.2579C286.77 26.2579 286.488 22.3859 286.488 22.0632L295.451 19.1592C295.087 21.2969 294.522 24.9269 294.522 25.1286L294.684 30.6543L299.609 30.2913L298.398 25.0883C298.398 25.0883 299.69 19.9256 299.609 19.8852C299.609 19.8852 300.699 14.1579 300.618 14.1579L301.87 7.62387L301.91 7.70453Z" fill="white"/>
<path d="M6.08105 60.9425V53.7312H10.6752V54.6604H7.11345V56.6168H8.57429C8.95628 56.6168 9.30557 56.6667 9.62217 56.7665C9.93877 56.8628 10.2106 57.0039 10.4378 57.1897C10.6683 57.3756 10.8473 57.6027 10.9746 57.8711C11.1019 58.1396 11.1656 58.4441 11.1656 58.7848C11.1656 59.122 11.1019 59.4249 10.9746 59.6933C10.8473 59.9583 10.6683 60.1837 10.4378 60.3695C10.2106 60.5554 9.93877 60.6982 9.62217 60.798C9.30557 60.8943 8.95628 60.9425 8.57429 60.9425H6.08105ZM7.11345 57.5511V60.0133H8.70334C8.9167 60.0133 9.10942 59.9807 9.28148 59.9153C9.45355 59.8499 9.5998 59.7621 9.72025 59.652C9.8407 59.5384 9.93361 59.4077 9.999 59.2597C10.0644 59.1083 10.0971 58.95 10.0971 58.7848C10.0971 58.389 9.96286 58.0845 9.69444 57.8711C9.42946 57.6578 9.02854 57.5511 8.4917 57.5511H7.11345Z" fill="white"/>
<path d="M19.5445 53.6899L22.7708 60.9425H21.7126L19.1677 55.094L16.7777 60.9425H15.7195L18.8167 53.6899H19.5445Z" fill="white"/>
<path d="M30.8245 53.6899L34.0507 60.9425H32.9925L32.0324 58.8158H28.9662L28.0577 60.9425H26.9995L30.0966 53.6899H30.8245ZM30.4477 55.2747L29.3688 57.8866H31.6091L30.4477 55.2747Z" fill="white"/>
<path d="M43.1626 53.7312V54.6604H40.1068V60.9425H39.0744V53.7312H43.1626Z" fill="white"/>
<path d="M48.0004 57.3394C48.0004 56.8405 48.0916 56.3673 48.274 55.9199C48.4599 55.4725 48.7214 55.0802 49.0587 54.743C49.3959 54.4023 49.802 54.1339 50.2769 53.9377C50.7552 53.7381 51.2869 53.6383 51.8719 53.6383C52.4673 53.6383 53.0041 53.7381 53.4825 53.9377C53.9608 54.1339 54.3669 54.4006 54.7007 54.7378C55.0379 55.0751 55.296 55.4674 55.475 55.9147C55.6574 56.3621 55.7486 56.837 55.7486 57.3394C55.7486 57.8247 55.6591 58.291 55.4801 58.7383C55.3046 59.1823 55.05 59.5746 54.7162 59.9153C54.3824 60.256 53.9729 60.5278 53.4876 60.7309C53.0058 60.9339 52.4604 61.0354 51.8513 61.0354C51.459 61.0354 51.0907 60.9907 50.7466 60.9012C50.4025 60.8083 50.0876 60.6792 49.802 60.5141C49.5198 60.3489 49.2668 60.1527 49.0432 59.9256C48.8195 59.695 48.6302 59.4438 48.4753 59.1719C48.3205 58.8966 48.2018 58.6041 48.1192 58.2944C48.04 57.9847 48.0004 57.6664 48.0004 57.3394ZM49.069 57.3394C49.069 57.7318 49.1395 58.0965 49.2806 58.4338C49.4217 58.7676 49.6161 59.0584 49.8639 59.3062C50.1151 59.5505 50.4111 59.7415 50.7518 59.8791C51.0959 60.0168 51.4693 60.0856 51.8719 60.0856C52.2746 60.0856 52.6479 60.0168 52.9921 59.8791C53.3362 59.7415 53.6322 59.5505 53.8799 59.3062C54.1312 59.0584 54.3273 58.7676 54.4684 58.4338C54.6095 58.0965 54.68 57.7318 54.68 57.3394C54.68 56.9403 54.6095 56.5738 54.4684 56.2399C54.3273 55.9027 54.1312 55.6119 53.8799 55.3676C53.6322 55.1232 53.3362 54.9322 52.9921 54.7946C52.6479 54.6569 52.2746 54.5881 51.8719 54.5881C51.4693 54.5881 51.0959 54.6569 50.7518 54.7946C50.4111 54.9322 50.1151 55.1232 49.8639 55.3676C49.6161 55.6119 49.4217 55.9027 49.2806 56.2399C49.1395 56.5738 49.069 56.9403 49.069 57.3394Z" fill="white"/>
<path d="M66.662 53.7312V54.6604H64.1688V60.9425H63.1312V54.6604H60.638V53.7312H66.662Z" fill="white"/>
<path d="M71.8715 60.9425V53.7312H73.9621C74.351 53.7312 74.6848 53.7846 74.9635 53.8912C75.2423 53.9979 75.4711 54.1373 75.6501 54.3094C75.8325 54.4814 75.9667 54.6793 76.0527 54.903C76.1387 55.1232 76.1817 55.3469 76.1817 55.574C76.1817 55.9492 76.094 56.2623 75.9185 56.5135C75.743 56.7613 75.4642 56.9626 75.0823 57.1175V57.1381C75.3507 57.1897 75.5916 57.2706 75.8049 57.3807C76.0217 57.4909 76.2041 57.6268 76.3521 57.7885C76.5035 57.9503 76.6188 58.1344 76.6979 58.3409C76.7771 58.5473 76.8167 58.7728 76.8167 59.0171C76.8167 59.2373 76.7719 59.4627 76.6825 59.6933C76.5964 59.9204 76.4553 60.1269 76.2592 60.3127C76.063 60.4986 75.8066 60.65 75.49 60.767C75.1769 60.884 74.7949 60.9425 74.3441 60.9425H71.8715ZM72.9039 54.6604V56.8181H73.5904C74.1101 56.8181 74.4938 56.7252 74.7416 56.5393C74.9893 56.3501 75.1132 56.0593 75.1132 55.667C75.1132 55.5328 75.0926 55.4054 75.0513 55.285C75.01 55.1611 74.9394 55.0544 74.8396 54.9649C74.7433 54.872 74.6142 54.798 74.4525 54.743C74.2942 54.6879 74.0963 54.6604 73.8589 54.6604H72.9039ZM72.9039 57.7524V60.0133H74.2047C74.511 60.0133 74.7622 59.9789 74.9584 59.9101C75.158 59.8413 75.3163 59.7535 75.4333 59.6468C75.5503 59.5367 75.6311 59.4146 75.6759 59.2803C75.7241 59.1427 75.7481 59.0068 75.7481 58.8726C75.7481 58.7074 75.7155 58.5577 75.6501 58.4235C75.5881 58.2858 75.49 58.1671 75.3558 58.0673C75.2251 57.9675 75.0599 57.8901 74.8603 57.835C74.6607 57.7799 74.425 57.7524 74.1531 57.7524H72.9039Z" fill="white"/>
<path d="M81.7371 57.3394C81.7371 56.8405 81.8283 56.3673 82.0107 55.9199C82.1965 55.4725 82.458 55.0802 82.7953 54.743C83.1325 54.4023 83.5386 54.1339 84.0135 53.9377C84.4918 53.7381 85.0235 53.6383 85.6086 53.6383C86.2039 53.6383 86.7408 53.7381 87.2191 53.9377C87.6974 54.1339 88.1035 54.4006 88.4373 54.7378C88.7746 55.0751 89.0327 55.4674 89.2116 55.9147C89.394 56.3621 89.4852 56.837 89.4852 57.3394C89.4852 57.8247 89.3957 58.291 89.2168 58.7383C89.0413 59.1823 88.7866 59.5746 88.4528 59.9153C88.119 60.256 87.7095 60.5278 87.2243 60.7309C86.7425 60.9339 86.197 61.0354 85.5879 61.0354C85.1956 61.0354 84.8274 60.9907 84.4832 60.9012C84.1391 60.8083 83.8242 60.6792 83.5386 60.5141C83.2564 60.3489 83.0035 60.1527 82.7798 59.9256C82.5561 59.695 82.3668 59.4438 82.212 59.1719C82.0571 58.8966 81.9384 58.6041 81.8558 58.2944C81.7766 57.9847 81.7371 57.6664 81.7371 57.3394ZM82.8056 57.3394C82.8056 57.7318 82.8761 58.0965 83.0172 58.4338C83.1583 58.7676 83.3528 59.0584 83.6005 59.3062C83.8518 59.5505 84.1477 59.7415 84.4884 59.8791C84.8325 60.0168 85.2059 60.0856 85.6086 60.0856C86.0112 60.0856 86.3846 60.0168 86.7287 59.8791C87.0728 59.7415 87.3688 59.5505 87.6166 59.3062C87.8678 59.0584 88.0639 58.7676 88.205 58.4338C88.3461 58.0965 88.4167 57.7318 88.4167 57.3394C88.4167 56.9403 88.3461 56.5738 88.205 56.2399C88.0639 55.9027 87.8678 55.6119 87.6166 55.3676C87.3688 55.1232 87.0728 54.9322 86.7287 54.7946C86.3846 54.6569 86.0112 54.5881 85.6086 54.5881C85.2059 54.5881 84.8325 54.6569 84.4884 54.7946C84.1477 54.9322 83.8518 55.1232 83.6005 55.3676C83.3528 55.6119 83.1583 55.9027 83.0172 56.2399C82.8761 56.5738 82.8056 56.9403 82.8056 57.3394Z" fill="white"/>
<path d="M94.9321 53.7312H97.1879C97.5802 53.7312 97.9209 53.7863 98.21 53.8964C98.499 54.0031 98.7365 54.1511 98.9223 54.3403C99.1116 54.5262 99.251 54.7464 99.3404 55.0011C99.4334 55.2523 99.4798 55.5207 99.4798 55.8063C99.4798 56.0885 99.4316 56.3535 99.3353 56.6013C99.2389 56.8456 99.091 57.059 98.8913 57.2414C98.6918 57.4203 98.4388 57.5631 98.1325 57.6698C97.8297 57.773 97.4684 57.8247 97.0485 57.8247H95.9697V60.9425H94.9321V53.7312ZM95.9697 54.6604V56.8955H97.1414C97.3342 56.8955 97.5079 56.8714 97.6628 56.8232C97.8211 56.7716 97.9553 56.6976 98.0654 56.6013C98.1756 56.5015 98.2599 56.381 98.3184 56.2399C98.3803 56.0988 98.4113 55.9388 98.4113 55.7599C98.4113 55.6291 98.3906 55.4983 98.3493 55.3676C98.3115 55.2368 98.2444 55.1198 98.148 55.0166C98.0551 54.9099 97.9295 54.8238 97.7712 54.7585C97.6163 54.6931 97.4219 54.6604 97.1879 54.6604H95.9697Z" fill="white"/>
<path d="M109.681 55.6463L105.102 61.0354H104.607V53.7312H105.639V59.2184L110.207 53.7312H110.713V60.9425H109.681V55.6463Z" fill="white"/>
<path d="M121.957 53.7312V54.6604H119.464V60.9425H118.426V54.6604H115.933V53.7312H121.957Z" fill="white"/>
<path d="M131.255 53.7312V54.6604H128.199V56.8387H131.152V57.773H128.199V60.0133H131.353V60.9425H127.167V53.7312H131.255Z" fill="white"/>
<path d="M139.711 53.6899L142.937 60.9425H141.879L139.334 55.094L136.944 60.9425H135.886L138.983 53.6899H139.711Z" fill="white"/>
<path d="M150.16 56.7665C150.577 56.7665 150.94 56.8232 151.249 56.9368C151.559 57.0504 151.815 57.2035 152.018 57.3962C152.225 57.5855 152.378 57.8075 152.478 58.0621C152.581 58.3168 152.633 58.5869 152.633 58.8726C152.633 59.1582 152.579 59.4266 152.473 59.6778C152.366 59.929 152.209 60.1493 152.003 60.3386C151.796 60.5244 151.54 60.6724 151.234 60.7825C150.931 60.8892 150.583 60.9425 150.191 60.9425H147.961V53.7312H148.994V56.7665H150.16ZM148.994 57.6956V60.0133H150.325C150.563 60.0133 150.761 59.9807 150.919 59.9153C151.077 59.8499 151.203 59.7656 151.296 59.6623C151.392 59.5557 151.461 59.4369 151.502 59.3062C151.544 59.1754 151.564 59.0446 151.564 58.9138C151.564 58.7349 151.535 58.5714 151.476 58.4235C151.421 58.272 151.34 58.143 151.234 58.0363C151.127 57.9296 150.996 57.847 150.842 57.7885C150.69 57.7266 150.518 57.6956 150.325 57.6956H148.994Z" fill="white"/>
<path d="M164.047 53.7312V60.9425H163.014V57.804H158.973V60.9425H157.94V53.7312H158.973V56.8749H163.014V53.7312H164.047Z" fill="white"/>
<path d="M176.865 53.7312V60.9425H175.833V53.7312H176.865ZM172.08 56.7665C172.496 56.7665 172.859 56.8232 173.169 56.9368C173.479 57.0504 173.735 57.2035 173.938 57.3962C174.145 57.5855 174.298 57.8075 174.398 58.0621C174.501 58.3168 174.553 58.5869 174.553 58.8726C174.553 59.1582 174.499 59.4266 174.393 59.6778C174.286 59.929 174.129 60.1493 173.923 60.3386C173.716 60.5244 173.46 60.6724 173.154 60.7825C172.851 60.8892 172.503 60.9425 172.111 60.9425H169.881V53.7312H170.913V56.7665H172.08ZM170.913 57.6956V60.0133H172.245C172.483 60.0133 172.68 59.9807 172.839 59.9153C172.997 59.8499 173.123 59.7656 173.216 59.6623C173.312 59.5557 173.381 59.4369 173.422 59.3062C173.463 59.1754 173.484 59.0446 173.484 58.9138C173.484 58.7349 173.455 58.5714 173.396 58.4235C173.341 58.272 173.26 58.143 173.154 58.0363C173.047 57.9296 172.916 57.847 172.761 57.7885C172.61 57.7266 172.438 57.6956 172.245 57.6956H170.913Z" fill="white"/>
<path d="M187.784 55.6463L183.205 61.0354H182.709V53.7312H183.742V59.2184L188.31 53.7312H188.816V60.9425H187.784V55.6463ZM184.95 51.8213C185.053 52.2583 185.323 52.4769 185.76 52.4769C185.967 52.4769 186.13 52.4252 186.251 52.322C186.371 52.2153 186.459 52.0484 186.514 51.8213H187.231C187.152 52.2652 186.985 52.6042 186.731 52.8382C186.479 53.0688 186.153 53.1841 185.75 53.1841C185.344 53.1841 185.01 53.0688 184.748 52.8382C184.49 52.6042 184.322 52.2652 184.243 51.8213H184.95Z" fill="white"/>
<path d="M204.851 60.2663C204.39 60.2663 203.955 60.1992 203.545 60.065C203.139 59.9273 202.785 59.7329 202.482 59.4817C202.179 59.227 201.94 58.919 201.764 58.5577C201.589 58.1963 201.501 57.7903 201.501 57.3394C201.501 56.8645 201.589 56.4447 201.764 56.0799C201.94 55.7117 202.179 55.402 202.482 55.1508C202.785 54.8961 203.139 54.7034 203.545 54.5726C203.955 54.4419 204.39 54.3765 204.851 54.3765V53.6383H205.889V54.3765C206.35 54.3765 206.784 54.4419 207.19 54.5726C207.599 54.7034 207.955 54.8961 208.258 55.1508C208.564 55.402 208.805 55.7117 208.981 56.0799C209.16 56.4447 209.249 56.8645 209.249 57.3394C209.249 57.7903 209.16 58.1963 208.981 58.5577C208.805 58.919 208.564 59.227 208.258 59.4817C207.955 59.7329 207.599 59.9273 207.19 60.065C206.784 60.1992 206.35 60.2663 205.889 60.2663V61.0354H204.851V60.2663ZM205.889 59.3165C206.205 59.3165 206.501 59.2769 206.777 59.1978C207.055 59.1152 207.298 58.993 207.505 58.8313C207.714 58.6695 207.88 58.4648 208 58.217C208.121 57.9658 208.181 57.6733 208.181 57.3394C208.181 56.9919 208.121 56.6925 208 56.4413C207.88 56.19 207.714 55.9818 207.505 55.8167C207.298 55.6515 207.055 55.5293 206.777 55.4502C206.501 55.371 206.205 55.3314 205.889 55.3314V59.3165ZM204.851 55.3314C204.538 55.3314 204.242 55.371 203.963 55.4502C203.688 55.5293 203.447 55.6515 203.241 55.8167C203.034 55.9818 202.871 56.19 202.75 56.4413C202.63 56.6925 202.57 56.9884 202.57 57.3291C202.57 57.6664 202.63 57.9606 202.75 58.2118C202.871 58.4596 203.034 58.6661 203.241 58.8313C203.447 58.993 203.688 59.1152 203.963 59.1978C204.242 59.2769 204.538 59.3165 204.851 59.3165V55.3314Z" fill="white"/>
<path d="M214.433 57.3394C214.433 56.8405 214.524 56.3673 214.707 55.9199C214.892 55.4725 215.154 55.0802 215.491 54.743C215.828 54.4023 216.234 54.1339 216.709 53.9377C217.188 53.7381 217.719 53.6383 218.304 53.6383C218.9 53.6383 219.437 53.7381 219.915 53.9377C220.393 54.1339 220.799 54.4006 221.133 54.7378C221.47 55.0751 221.729 55.4674 221.907 55.9147C222.09 56.3621 222.181 56.837 222.181 57.3394C222.181 57.8247 222.092 58.291 221.913 58.7383C221.737 59.1823 221.482 59.5746 221.149 59.9153C220.815 60.256 220.405 60.5278 219.92 60.7309C219.438 60.9339 218.893 61.0354 218.284 61.0354C217.891 61.0354 217.523 60.9907 217.179 60.9012C216.835 60.8083 216.52 60.6792 216.234 60.5141C215.952 60.3489 215.699 60.1527 215.476 59.9256C215.252 59.695 215.063 59.4438 214.908 59.1719C214.753 58.8966 214.634 58.6041 214.552 58.2944C214.473 57.9847 214.433 57.6664 214.433 57.3394ZM215.501 57.3394C215.501 57.7318 215.572 58.0965 215.713 58.4338C215.854 58.7676 216.049 59.0584 216.296 59.3062C216.548 59.5505 216.844 59.7415 217.184 59.8791C217.528 60.0168 217.902 60.0856 218.304 60.0856C218.707 60.0856 219.08 60.0168 219.425 59.8791C219.769 59.7415 220.065 59.5505 220.312 59.3062C220.564 59.0584 220.76 58.7676 220.901 58.4338C221.042 58.0965 221.113 57.7318 221.113 57.3394C221.113 56.9403 221.042 56.5738 220.901 56.2399C220.76 55.9027 220.564 55.6119 220.312 55.3676C220.065 55.1232 219.769 54.9322 219.425 54.7946C219.08 54.6569 218.707 54.5881 218.304 54.5881C217.902 54.5881 217.528 54.6569 217.184 54.7946C216.844 54.9322 216.548 55.1232 216.296 55.3676C216.049 55.6119 215.854 55.9027 215.713 56.2399C215.572 56.5738 215.501 56.9403 215.501 57.3394Z" fill="white"/>
<path d="M233.791 53.7312V60.9425H232.759V57.804H228.717V60.9425H227.685V53.7312H228.717V56.8749H232.759V53.7312H233.791Z" fill="white"/>
<path d="M245.81 60.0133V62.264H244.751V60.9425H239.992V62.264H238.934V60.0133H239.569L241.948 53.6899H242.676L245.175 60.0133H245.81ZM242.299 55.2024L240.606 60.0133H244.127L242.299 55.2024Z" fill="white"/>
</svg>
