<svg width="219" height="206" viewBox="0 0 219 206" fill="none" xmlns="http://www.w3.org/2000/svg">
<g id="freepik--Gifts--inject-216">
<path id="Vector" d="M211.42 205.086H47.8623L71.7164 38.479H187.579L211.42 205.086Z" fill="#D01525"/>
<path id="Vector_2" opacity="0.6" d="M211.42 205.086H47.8623L71.7164 38.479H187.579L211.42 205.086Z" fill="white"/>
<path id="Vector_3" d="M187.565 38.479L169.399 205.086H211.419L187.565 38.479Z" fill="#D01525"/>
<path id="Vector_4" d="M104.345 49.9707L99.2207 48.8817C99.2207 48.7408 102.206 34.7897 105.383 20.6207C108.803 5.34999 123.818 -1.68323 136.373 0.340906C145.763 1.86541 156.178 9.19331 154.615 24.8483C152.937 41.6179 151.669 49.5095 151.605 49.8426L146.48 49.0099C146.48 48.933 147.762 40.9133 149.44 24.3359C150.644 12.2935 143.034 6.72078 135.565 5.50374C125.419 3.86393 113.262 9.48796 110.507 21.7609C107.394 35.8786 104.371 49.8298 104.345 49.9707Z" fill="#263238"/>
<path id="Vector_5" d="M171.604 203.805C174.973 201.422 178.457 199.232 181.929 197.028C185.401 194.825 188.962 192.775 192.537 190.738L193.024 190.456L193.472 190.789C196.239 192.865 199.006 194.94 201.684 197.131C204.361 199.321 207.077 201.474 209.665 203.792C206.68 201.999 203.798 200.09 200.941 198.143C198.084 196.195 195.253 194.21 192.46 192.173H193.395C189.851 194.248 186.268 196.259 182.647 198.207C179.008 200.18 175.37 202.088 171.604 203.805Z" fill="white"/>
<path id="Vector_6" d="M192.959 191.481C192.242 180.861 191.678 170.228 191.217 159.594C190.756 148.961 190.358 138.328 189.936 127.695C189.513 117.062 189.282 106.429 189.052 95.7829L188.757 79.8204C188.757 74.5038 188.616 69.1745 188.642 63.8579C189.013 69.1617 189.282 74.4782 189.603 79.7948L190.397 95.7445C190.897 106.365 191.242 117.011 191.678 127.644C192.114 138.277 192.344 148.91 192.562 159.556C192.78 170.202 192.959 180.835 192.959 191.481Z" fill="white"/>
<path id="Vector_7" d="M108.675 49.42C108.678 50.7939 108.273 52.1376 107.511 53.2811C106.75 54.4247 105.666 55.3167 104.398 55.8442C103.129 56.3717 101.733 56.511 100.385 56.2445C99.0371 55.978 97.7987 55.3177 96.8263 54.3472C95.854 53.3766 95.1914 52.1394 94.9224 50.7922C94.6535 49.4449 94.7902 48.0481 95.3154 46.7786C95.8406 45.5091 96.7305 44.4239 97.8727 43.6604C99.0148 42.8968 100.358 42.4893 101.732 42.4893C102.643 42.4876 103.545 42.6656 104.388 43.0132C105.23 43.3607 105.996 43.8709 106.641 44.5147C107.286 45.1584 107.797 45.9231 108.146 46.7648C108.495 47.6065 108.675 48.5088 108.675 49.42Z" fill="#263238"/>
<path id="Vector_8" d="M155.449 49.42C155.451 50.7939 155.046 52.1376 154.285 53.2811C153.523 54.4247 152.44 55.3167 151.171 55.8442C149.903 56.3717 148.506 56.511 147.158 56.2445C145.811 55.978 144.572 55.3177 143.6 54.3472C142.627 53.3766 141.965 52.1394 141.696 50.7922C141.427 49.4449 141.564 48.0481 142.089 46.7786C142.614 45.5091 143.504 44.4239 144.646 43.6604C145.788 42.8968 147.131 42.4893 148.505 42.4893C149.416 42.4876 150.319 42.6656 151.161 43.0132C152.004 43.3607 152.769 43.8709 153.414 44.5147C154.059 45.1584 154.571 45.9231 154.92 46.7648C155.269 47.6065 155.449 48.5088 155.449 49.42Z" fill="#263238"/>
<path id="Vector_9" d="M187.681 84.253C187.596 86.1134 187.016 87.9174 186.003 89.4799C185.949 89.1177 185.876 88.7585 185.785 88.4038C185.7 88.0179 185.594 87.6371 185.465 87.2636C184.571 84.6832 183.188 82.2995 181.391 80.2432L180.789 79.5385L180.622 79.3592L180.328 79.0389C163.827 58.1442 148.146 92.0037 147.813 92.7851C147.813 92.7851 146.904 59.0281 164.903 58.0801C178.995 57.3499 188.501 73.8121 187.681 84.253Z" fill="#D01525"/>
<path id="Vector_10" d="M186.003 89.4798C185.594 90.0684 185.097 90.5911 184.53 91.03C175.934 97.6148 149.53 93.1054 147.89 92.8235H147.801C172.628 95.2064 179.431 86.1746 180.623 79.3848L180.789 79.5641L181.391 80.2687C183.181 82.3302 184.563 84.7125 185.465 87.2892C185.593 87.6735 185.696 88.0578 185.785 88.4293C185.876 88.7756 185.948 89.1262 186.003 89.4798Z" fill="#D01525"/>
<path id="Vector_11" opacity="0.2" d="M186.003 89.4798C185.594 90.0684 185.097 90.5911 184.53 91.03C175.934 97.6148 149.53 93.1054 147.89 92.8235H147.801C172.628 95.2064 179.431 86.1746 180.623 79.3848L180.789 79.5641L181.391 80.2687C183.181 82.3302 184.563 84.7125 185.465 87.2892C185.593 87.6735 185.696 88.0578 185.785 88.4293C185.876 88.7756 185.948 89.1262 186.003 89.4798Z" fill="black"/>
<path id="Vector_12" d="M107.292 88.1217C107.563 89.9622 108.314 91.6988 109.47 93.1564C109.484 92.7913 109.523 92.4275 109.585 92.0675C109.63 91.6751 109.698 91.2858 109.79 90.9017C110.435 88.2481 111.583 85.7429 113.172 83.5226C113.352 83.2663 113.518 83.0229 113.71 82.7667L113.851 82.5746C113.944 82.4647 114.029 82.3492 114.107 82.2286C128.533 59.8606 147.416 92.0547 147.8 92.7977C147.8 92.7977 145.482 59.1048 127.469 59.8991C113.352 60.514 105.473 77.8088 107.292 88.1217Z" fill="#D01525"/>
<path id="Vector_13" d="M109.47 93.1566C109.93 93.7086 110.475 94.1843 111.084 94.5658C120.269 100.292 146.122 93.2847 147.723 92.8235H147.8C123.331 97.5764 115.683 89.2364 113.851 82.5747L113.71 82.7669C113.518 83.0231 113.351 83.2665 113.172 83.5227C111.59 85.7473 110.442 88.251 109.79 90.9019C109.7 91.299 109.636 91.6833 109.585 92.0676C109.523 92.4277 109.484 92.7914 109.47 93.1566Z" fill="#D01525"/>
<path id="Vector_14" opacity="0.2" d="M109.47 93.1566C109.93 93.7086 110.475 94.1843 111.084 94.5658C120.269 100.292 146.122 93.2847 147.723 92.8235H147.8C123.331 97.5764 115.683 89.2364 113.851 82.5747L113.71 82.7669C113.518 83.0231 113.351 83.2665 113.172 83.5227C111.59 85.7473 110.442 88.251 109.79 90.9019C109.7 91.299 109.636 91.6833 109.585 92.0676C109.523 92.4277 109.484 92.7914 109.47 93.1566Z" fill="black"/>
<path id="Vector_15" d="M196.136 205.048L100.144 205.086L108.035 96.8076L186.515 100.138L196.136 205.048Z" fill="#455A64"/>
<path id="Vector_16" d="M218.287 205.035L188.488 205.048L184.273 100.139L212.932 102.624L218.287 205.035Z" fill="#263238"/>
<path id="Vector_17" d="M98.7988 96.8205L98.8116 117.959L184.287 115.307L184.274 91.1196L98.7988 96.8205Z" fill="#37474F"/>
<path id="Vector_18" d="M216.429 117.907L184.286 115.307L184.273 91.1196L218.248 96.7693L216.429 117.907Z" fill="#455A64"/>
<path id="Vector_19" d="M155.192 205.061L135.105 205.074L133.042 94.5274L156.755 92.9517L155.192 205.061Z" fill="#D01525"/>
<path id="Vector_20" d="M200.8 205.048H207.628L206.975 94.8859L197.431 93.2974L200.8 205.048Z" fill="#D01525"/>
<path id="Vector_21" d="M33.9365 117.318C35.9222 112.629 41.3157 108.248 50.8342 111.118C65.285 115.473 62.4794 136.74 62.0695 139.302C62.6203 136.33 67.1938 108.991 52.6534 104.507C41.1491 100.997 35.0639 110.413 33.9365 117.318Z" fill="#455A64"/>
<path id="Vector_22" d="M33.9361 117.318C33.4956 119.187 33.6941 121.149 34.4998 122.891C37.3823 127.439 45.8504 135.125 61.0058 139.327L62.0178 139.596C62.0232 139.507 62.0232 139.417 62.0178 139.327C62.0127 139.276 62.0127 139.225 62.0178 139.174H61.9025C47.7207 132.358 40.2519 124.3 37.8819 120.06C36.9467 118.381 37.4207 115.397 39.163 112.745C39.5681 112.129 40.0268 111.55 40.5338 111.015C39.0605 111.557 37.7144 112.396 36.5794 113.48C35.4443 114.565 34.5446 115.871 33.9361 117.318Z" fill="#263238"/>
<path id="Vector_23" d="M91.2275 117.318C89.2418 112.629 83.8484 108.248 74.3427 111.118C59.879 115.473 62.6975 136.74 63.0946 139.302C62.5565 136.33 57.9702 108.991 72.5107 104.507C84.0149 100.997 90.1002 110.413 91.2275 117.318Z" fill="#455A64"/>
<path id="Vector_24" d="M91.2272 117.318C91.6678 119.187 91.4693 121.149 90.6635 122.891C87.7811 127.439 79.313 135.125 64.1576 139.327L63.1455 139.596C63.1455 139.596 63.1455 139.507 63.1455 139.327C63.1455 139.148 63.1455 139.225 63.1455 139.174C63.1795 139.178 63.214 139.178 63.248 139.174C77.4298 132.358 84.8986 124.3 87.2686 120.06C88.2038 118.381 87.7426 115.397 85.9875 112.745C85.578 112.129 85.115 111.55 84.6039 111.015C86.0831 111.552 87.4352 112.389 88.575 113.474C89.7149 114.558 90.6179 115.867 91.2272 117.318Z" fill="#263238"/>
<path id="Vector_25" d="M24.3283 138.367C23.1241 134.319 24.956 128.848 34.6924 126.158C49.4763 122.084 60.1222 137.393 61.3905 139.328C60.0325 137.099 47.1318 116.908 32.1942 120.957C20.3697 124.198 21.0359 133.319 24.3283 138.367Z" fill="#455A64"/>
<path id="Vector_26" d="M24.328 138.367C25.1985 139.892 26.5501 141.086 28.1713 141.762C33.3726 143.363 45.1715 144.324 60.4678 139.827L61.4799 139.52L61.3518 139.328C61.3518 139.328 61.3518 139.251 61.2749 139.212H61.1596C45.0818 141.544 33.885 139.827 29.2987 138.175C28.2828 137.677 27.425 136.906 26.8211 135.949C26.2172 134.993 25.8907 133.887 25.8781 132.756C25.8383 132.152 25.8684 131.546 25.9678 130.949C25.0754 131.938 24.455 133.141 24.1675 134.441C23.8801 135.742 23.9354 137.094 24.328 138.367Z" fill="#263238"/>
<path id="Vector_27" d="M99.8621 138.367C101.066 134.319 99.2344 128.848 89.498 126.158C74.7013 122.084 64.0682 137.393 62.7871 139.328C64.1579 137.099 77.0458 116.908 91.9962 120.957C103.821 124.198 103.155 133.319 99.8621 138.367Z" fill="#455A64"/>
<path id="Vector_28" d="M99.8618 138.367C98.9846 139.887 97.6351 141.079 96.0185 141.762C90.8173 143.363 79.0056 144.324 63.722 139.827C63.3761 139.738 63.043 139.622 62.71 139.52L62.8253 139.328L62.9021 139.212H63.0302C79.0952 141.544 90.292 139.827 94.8912 138.175C95.9053 137.674 96.7614 136.903 97.365 135.947C97.9686 134.991 98.2963 133.886 98.3117 132.756C98.3516 132.152 98.3215 131.546 98.222 130.949C99.1145 131.938 99.7349 133.141 100.022 134.441C100.31 135.742 100.254 137.094 99.8618 138.367Z" fill="#263238"/>
<path id="Vector_29" d="M99.6057 205.086H8.89096L5.17578 142.069L103.603 144.029L99.6057 205.086Z" fill="#D01525"/>
<path id="Vector_30" d="M131.428 205.086H99.6055L100.925 144.029L135.322 146.758L131.428 205.086Z" fill="#D01525"/>
<path id="Vector_31" opacity="0.6" d="M131.428 205.086H99.6055L100.925 144.029L135.322 146.758L131.428 205.086Z" fill="white"/>
<path id="Vector_32" d="M0 141.966L2.20349 164.808H100.925V137.303L0 141.966Z" fill="#D01525"/>
<path id="Vector_33" opacity="0.1" d="M0 141.966L2.20349 164.808H100.925V137.303L0 141.966Z" fill="black"/>
<path id="Vector_34" d="M138.294 164.808H100.925V137.303L141.92 142.146L138.294 164.808Z" fill="#D01525"/>
<path id="Vector_35" opacity="0.4" d="M138.294 164.808H100.925V137.303L141.92 142.146L138.294 164.808Z" fill="white"/>
<path id="Vector_36" d="M127.277 140.416L120.282 204.907H112.301L116.733 139.174L127.277 140.416Z" fill="#455A64"/>
<path id="Vector_37" d="M61.377 139.135V205.086H40.3798L38.0098 140.211L61.377 139.135Z" fill="#455A64"/>
</g>
</svg>
