<svg width="167" height="167" viewBox="0 0 167 167" fill="none" xmlns="http://www.w3.org/2000/svg">
<path id="Vector" d="M116.545 81.6054C116.545 81.6054 86.3569 80.9701 86.3569 48.2623V0.000366211H82.6108V48.2623C82.6108 80.9701 52.4224 81.6054 52.4224 81.6054H-0.00195312V85.3953H52.4224C52.4224 85.3953 82.6108 86.0307 82.6108 118.738V167H86.3569V118.738C86.3569 86.0307 116.545 85.3953 116.545 85.3953H166.998V81.6054H116.545ZM96.6972 84.0809C96.5658 85.0667 96.2153 85.965 95.6457 86.7755C95.098 87.5642 94.397 88.2214 93.6521 88.8129C92.8635 89.4263 92.0091 89.974 91.1547 90.4998C90.2346 91.0694 89.3583 91.6609 88.5258 92.3619C87.3428 93.3477 86.2474 94.4212 85.3273 95.648C85.0644 96.0204 84.8016 96.3929 84.6044 96.8091C84.5606 96.8748 84.5386 96.9624 84.5167 97.0282C84.3853 96.7653 84.2758 96.5243 84.1224 96.2614C83.7938 95.6918 83.3776 95.188 82.9613 94.706C81.7345 93.3258 80.3324 92.1647 78.777 91.2008C77.8131 90.6093 76.8492 90.0397 75.9291 89.3825C75.1623 88.8348 74.4175 88.2214 73.8041 87.4985C72.9497 86.4907 72.4458 85.3515 72.2705 84.0371C72.2705 83.8399 72.2267 83.6428 72.2048 83.4456V82.7884C72.2048 82.5693 72.2486 82.3283 72.2705 82.1092C72.3362 81.2768 72.5115 80.4662 72.7963 79.6994C73.2125 78.5602 73.8478 77.5525 74.7898 76.7638C75.6223 76.0628 76.5644 75.6247 77.6378 75.4713C77.7912 75.4713 77.9665 75.4275 78.1198 75.4056H78.6236C78.6236 75.4056 78.6894 75.4056 78.7332 75.4056C79.2809 75.4494 79.8066 75.5589 80.3324 75.7561C81.5592 76.2162 82.5232 77.0048 83.3119 78.0345C83.7719 78.6479 84.1443 79.3051 84.451 79.9842C84.451 80.028 84.4948 80.0718 84.5167 80.1157C84.5386 80.0499 84.5605 80.0061 84.5825 79.9623C85.0863 78.8231 85.7655 77.8154 86.7075 77.0267C88.0657 75.8876 89.5993 75.3399 91.3738 75.537C92.1405 75.6247 92.8416 75.8656 93.4988 76.26C94.6818 76.961 95.5143 77.9907 96.062 79.2394C96.3906 79.9842 96.5877 80.7729 96.6972 81.5835C96.8068 82.4159 96.8506 83.2484 96.7411 84.0809H96.6972Z" fill="#D01525"/>
</svg>
